<?xml version="1.0" encoding="utf-8"?><!-- Uploaded to: SVG Repo, www.svgrepo.com, Generator: SVG Repo Mixer Tools -->
<svg fill="#000000" width="800px" height="800px" viewBox="0 0 24 24" id="down-trend-left-round" data-name="Flat Color" xmlns="http://www.w3.org/2000/svg" class="icon flat-color"><path id="primary" d="M21.71,6.29a1,1,0,0,0-1.42,0l-5.79,5.8L11.91,9.5a2,2,0,0,0-2.82,0L4,14.59V13a1,1,0,0,0-2,0v4a1,1,0,0,0,1,1H7a1,1,0,0,0,0-2H5.41l5.09-5.09,2.59,2.59a2,2,0,0,0,2.82,0l5.8-5.79A1,1,0,0,0,21.71,6.29Z" style="fill: rgb(0, 0, 0);"></path></svg>